name ./resultDataOpenSim/trcMotMarkerGrf/sub06/grf-13-07.mot
datacolumns 19
datarows 30
range 0.51600000 0.63200000
endheader

                time	     ground_force_vx	     ground_force_vy	     ground_force_vz	     ground_force_px	     ground_force_py	     ground_force_pz	   l_ground_force_vx	   l_ground_force_vy	   l_ground_force_vz	   l_ground_force_px	   l_ground_force_py	   l_ground_force_pz	     ground_torque_x	     ground_torque_y	     ground_torque_z	   l_ground_torque_x	   l_ground_torque_y	   l_ground_torque_z	
          0.51600000	         93.75240016	        588.50868768	        -30.74475545	         -0.81118333	          0.00000000	          0.06802481	          0.00000000	          0.00000000	          0.00000000	          0.00000000	          0.00000000	          0.00000000	          0.00000000	         -0.23965110	          0.00000000	          0.00000000	          0.00000000	          0.00000000	
          0.52000000	         98.99204115	        606.46047058	        -29.69854908	         -0.81052304	          0.00000000	          0.06759998	          0.00000000	          0.00000000	          0.00000000	          0.00000000	          0.00000000	          0.00000000	          0.00000000	         -0.05687469	          0.00000000	          0.00000000	          0.00000000	          0.00000000	
          0.52400000	        104.34373929	        623.98153060	        -28.80990367	         -0.80988649	          0.00000000	          0.06718392	          0.00000000	          0.00000000	          0.00000000	          0.00000000	          0.00000000	          0.00000000	          0.00000000	          0.12192780	          0.00000000	          0.00000000	          0.00000000	          0.00000000	
          0.52800000	        109.87759190	        640.96096947	        -28.15735384	         -0.80927934	          0.00000000	          0.06679241	          0.00000000	          0.00000000	          0.00000000	          0.00000000	          0.00000000	          0.00000000	          0.00000000	          0.28761527	          0.00000000	          0.00000000	          0.00000000	          0.00000000	
          0.53200000	        115.68214415	        657.31311249	        -27.77519061	         -0.80870915	          0.00000000	          0.06644133	          0.00000000	          0.00000000	          0.00000000	          0.00000000	          0.00000000	          0.00000000	          0.00000000	          0.43317228	          0.00000000	          0.00000000	          0.00000000	          0.00000000	
          0.53600000	        121.83217638	        672.97021745	        -27.65592858	         -0.80818135	          0.00000000	          0.06614160	          0.00000000	          0.00000000	          0.00000000	          0.00000000	          0.00000000	          0.00000000	          0.00000000	          0.55446609	          0.00000000	          0.00000000	          0.00000000	          0.00000000	
          0.54000000	        128.36513553	        687.86672462	        -27.76074629	         -0.80769899	          0.00000000	          0.06589820	          0.00000000	          0.00000000	          0.00000000	          0.00000000	          0.00000000	          0.00000000	          0.00000000	          0.65035620	          0.00000000	          0.00000000	          0.00000000	          0.00000000	
          0.54400000	        135.26874474	        701.94286826	        -28.03243829	         -0.80725413	          0.00000000	          0.06571107	          0.00000000	          0.00000000	          0.00000000	          0.00000000	          0.00000000	          0.00000000	          0.00000000	          0.72228108	          0.00000000	          0.00000000	          0.00000000	          0.00000000	
          0.54800000	        142.47171781	        715.16890696	        -28.40852514	         -0.80683180	          0.00000000	          0.06557258	          0.00000000	          0.00000000	          0.00000000	          0.00000000	          0.00000000	          0.00000000	          0.00000000	          0.77343487	          0.00000000	          0.00000000	          0.00000000	          0.00000000	
          0.55200000	        149.84472513	        727.53598793	        -28.84433679	         -0.80642474	          0.00000000	          0.06546581	          0.00000000	          0.00000000	          0.00000000	          0.00000000	          0.00000000	          0.00000000	          0.00000000	          0.80758738	          0.00000000	          0.00000000	          0.00000000	          0.00000000	
          0.55600000	        157.23585045	        738.96243956	        -29.33458995	         -0.80603768	          0.00000000	          0.06537420	          0.00000000	          0.00000000	          0.00000000	          0.00000000	          0.00000000	          0.00000000	          0.00000000	          0.82770666	          0.00000000	          0.00000000	          0.00000000	          0.00000000	
          0.56000000	        164.51901574	        749.18618692	        -29.90056662	         -0.80566261	          0.00000000	          0.06529865	          0.00000000	          0.00000000	          0.00000000	          0.00000000	          0.00000000	          0.00000000	          0.00000000	          0.83481193	          0.00000000	          0.00000000	          0.00000000	          0.00000000	
          0.56400000	        171.59955160	        757.80520638	        -30.55547801	         -0.80525470	          0.00000000	          0.06525992	          0.00000000	          0.00000000	          0.00000000	          0.00000000	          0.00000000	          0.00000000	          0.00000000	          0.82760425	          0.00000000	          0.00000000	          0.00000000	          0.00000000	
          0.56800000	        178.40177763	        764.49470024	        -31.29448698	         -0.80475883	          0.00000000	          0.06527415	          0.00000000	          0.00000000	          0.00000000	          0.00000000	          0.00000000	          0.00000000	          0.00000000	          0.80312368	          0.00000000	          0.00000000	          0.00000000	          0.00000000	
          0.57200000	        184.89854573	        769.18847117	        -32.11216611	         -0.80417256	          0.00000000	          0.06532535	          0.00000000	          0.00000000	          0.00000000	          0.00000000	          0.00000000	          0.00000000	          0.00000000	          0.75811324	          0.00000000	          0.00000000	          0.00000000	          0.00000000	
          0.57600000	        191.13578564	        772.00923911	        -33.00914654	         -0.80356852	          0.00000000	          0.06537327	          0.00000000	          0.00000000	          0.00000000	          0.00000000	          0.00000000	          0.00000000	          0.00000000	          0.69040419	          0.00000000	          0.00000000	          0.00000000	          0.00000000	
          0.58000000	        197.17901032	        773.01546865	        -33.97091613	         -0.80302008	          0.00000000	          0.06539192	          0.00000000	          0.00000000	          0.00000000	          0.00000000	          0.00000000	          0.00000000	          0.00000000	          0.59977860	          0.00000000	          0.00000000	          0.00000000	          0.00000000	
          0.58400000	        203.03696934	        772.03726782	        -34.94553556	         -0.80251696	          0.00000000	          0.06539276	          0.00000000	          0.00000000	          0.00000000	          0.00000000	          0.00000000	          0.00000000	          0.00000000	          0.48820678	          0.00000000	          0.00000000	          0.00000000	          0.00000000	
          0.58800000	        208.66346278	        768.77720828	        -35.85337672	         -0.80197807	          0.00000000	          0.06541004	          0.00000000	          0.00000000	          0.00000000	          0.00000000	          0.00000000	          0.00000000	          0.00000000	          0.35964361	          0.00000000	          0.00000000	          0.00000000	          0.00000000	
          0.59200000	        214.01997481	        763.08133614	        -36.61306940	         -0.80134551	          0.00000000	          0.06546470	          0.00000000	          0.00000000	          0.00000000	          0.00000000	          0.00000000	          0.00000000	          0.00000000	          0.21952987	          0.00000000	          0.00000000	          0.00000000	          0.00000000	
          0.59600000	        219.10895071	        755.08155705	        -37.14133735	         -0.80066349	          0.00000000	          0.06553578	          0.00000000	          0.00000000	          0.00000000	          0.00000000	          0.00000000	          0.00000000	          0.00000000	          0.07399309	          0.00000000	          0.00000000	          0.00000000	          0.00000000	
          0.60000000	        223.94412166	        745.02810509	        -37.34775215	         -0.80003026	          0.00000000	          0.06558006	          0.00000000	          0.00000000	          0.00000000	          0.00000000	          0.00000000	          0.00000000	          0.00000000	         -0.07122204	          0.00000000	          0.00000000	          0.00000000	          0.00000000	
          0.60400000	        228.49721728	        733.01635561	        -37.16084951	         -0.79949905	          0.00000000	          0.06558309	          0.00000000	          0.00000000	          0.00000000	          0.00000000	          0.00000000	          0.00000000	          0.00000000	         -0.21180853	          0.00000000	          0.00000000	          0.00000000	          0.00000000	
          0.60800000	        232.67960079	        718.93469711	        -36.55221517	         -0.79901620	          0.00000000	          0.06556610	          0.00000000	          0.00000000	          0.00000000	          0.00000000	          0.00000000	          0.00000000	          0.00000000	         -0.34553133	          0.00000000	          0.00000000	          0.00000000	          0.00000000	
          0.61200000	        236.37579575	        702.63781830	        -35.53134088	         -0.79853216	          0.00000000	          0.06553944	          0.00000000	          0.00000000	          0.00000000	          0.00000000	          0.00000000	          0.00000000	          0.00000000	         -0.47231052	          0.00000000	          0.00000000	          0.00000000	          0.00000000	
          0.61600000	        239.48653481	        684.09335903	        -34.12389822	         -0.79807045	          0.00000000	          0.06548767	          0.00000000	          0.00000000	          0.00000000	          0.00000000	          0.00000000	          0.00000000	          0.00000000	         -0.59397825	          0.00000000	          0.00000000	          0.00000000	          0.00000000	
          0.62000000	        241.92778940	        663.33764795	        -32.34828726	         -0.79772144	          0.00000000	          0.06538490	          0.00000000	          0.00000000	          0.00000000	          0.00000000	          0.00000000	          0.00000000	          0.00000000	         -0.71390407	          0.00000000	          0.00000000	          0.00000000	          0.00000000	
          0.62400000	        243.59236707	        640.28114572	        -30.20920920	         -0.79756582	          0.00000000	          0.06521926	          0.00000000	          0.00000000	          0.00000000	          0.00000000	          0.00000000	          0.00000000	          0.00000000	         -0.83631072	          0.00000000	          0.00000000	          0.00000000	          0.00000000	
          0.62800000	        244.32574456	        614.55272104	        -27.70788666	         -0.79761320	          0.00000000	          0.06501433	          0.00000000	          0.00000000	          0.00000000	          0.00000000	          0.00000000	          0.00000000	          0.00000000	         -0.96485820	          0.00000000	          0.00000000	          0.00000000	          0.00000000	
          0.63200000	        243.91537426	        585.59529181	        -24.84904073	         -0.79779610	          0.00000000	          0.06482294	          0.00000000	          0.00000000	          0.00000000	          0.00000000	          0.00000000	          0.00000000	          0.00000000	         -1.10038073	          0.00000000	          0.00000000	          0.00000000	          0.00000000	
